<svg width="138" height="70" viewBox="0 0 138 70" fill="none" xmlns="http://www.w3.org/2000/svg">
<g filter="url(#filter0_d_3_340)">
<rect x="18" y="14" width="102" height="34" rx="5.25" fill="#2D2D2D"/>
<path d="M43.756 30.5234C43.7637 29.9238 43.923 29.3358 44.219 28.8142C44.5151 28.2927 44.9382 27.8545 45.4491 27.5404C45.1245 27.0769 44.6964 26.6954 44.1986 26.4263C43.7009 26.1572 43.1472 26.0079 42.5817 25.9902C41.3752 25.8636 40.2056 26.7121 39.5908 26.7121C38.9642 26.7121 38.0176 26.0028 36.9983 26.0238C36.3391 26.0451 35.6965 26.2368 35.1333 26.5802C34.5702 26.9237 34.1056 27.4072 33.7848 27.9836C32.3953 30.3892 33.4318 33.9247 34.7628 35.8693C35.4287 36.8215 36.207 37.8851 37.2253 37.8474C38.2218 37.806 38.594 37.2119 39.7969 37.2119C40.9886 37.2119 41.3378 37.8474 42.3768 37.8234C43.4461 37.806 44.1199 36.867 44.7624 35.9058C45.2409 35.2273 45.6091 34.4774 45.8533 33.684C45.2321 33.4212 44.7019 32.9814 44.329 32.4194C43.956 31.8573 43.7567 31.1979 43.756 30.5234Z" fill="white"/>
<path d="M41.7935 24.7114C42.3765 24.0115 42.6638 23.1119 42.5942 22.2036C41.7035 22.2972 40.8807 22.7229 40.2898 23.3959C40.0008 23.7248 39.7796 24.1073 39.6386 24.5217C39.4976 24.936 39.4396 25.3741 39.4681 25.8109C39.9136 25.8155 40.3544 25.7189 40.7572 25.5285C41.16 25.338 41.5143 25.0587 41.7935 24.7114Z" fill="white"/>
<path d="M56.3528 35.4369H52.9521L52.1354 37.8483H50.695L53.9161 28.9267H55.4126L58.6337 37.8483H57.1687L56.3528 35.4369ZM53.3043 34.3241H55.9999L54.671 30.4106H54.6339L53.3043 34.3241Z" fill="white"/>
<path d="M65.5901 34.5964C65.5901 36.6177 64.5082 37.9164 62.8756 37.9164C62.462 37.938 62.0507 37.8428 61.6888 37.6415C61.3268 37.4402 61.0289 37.1411 60.829 36.7784H60.7981V40.0002H59.463V31.3438H60.7554V32.4256H60.7799C60.989 32.0647 61.2919 31.7671 61.6566 31.5646C62.0214 31.3621 62.4341 31.2623 62.8511 31.2757C64.5019 31.2757 65.5901 32.5807 65.5901 34.5964ZM64.2178 34.5964C64.2178 33.2795 63.5372 32.4137 62.4988 32.4137C61.4787 32.4137 60.7925 33.2977 60.7925 34.5964C60.7925 35.907 61.4787 36.7847 62.4988 36.7847C63.5372 36.7847 64.2178 35.9252 64.2178 34.5964Z" fill="white"/>
<path d="M72.7494 34.5964C72.7494 36.6177 71.6675 37.9164 70.0349 37.9164C69.6213 37.938 69.21 37.8428 68.8481 37.6415C68.4861 37.4402 68.1882 37.1411 67.9883 36.7784H67.9574V40.0001H66.6223V31.3438H67.9146V32.4256H67.9392C68.1482 32.0646 68.4512 31.7671 68.8159 31.5646C69.1806 31.3621 69.5934 31.2623 70.0103 31.2757C71.6612 31.2757 72.7494 32.5807 72.7494 34.5964ZM71.3771 34.5964C71.3771 33.2795 70.6965 32.4137 69.6581 32.4137C68.638 32.4137 67.9518 33.2977 67.9518 34.5964C67.9518 35.907 68.638 36.7847 69.6581 36.7847C70.6965 36.7847 71.3771 35.9252 71.3771 34.5964H71.3771Z" fill="white"/>
<path d="M77.4809 35.3624C77.5798 36.2471 78.4393 36.828 79.6138 36.828C80.7392 36.828 81.5488 36.2471 81.5488 35.4494C81.5488 34.7569 81.0605 34.3423 79.9042 34.0581L78.748 33.7796C77.1098 33.3839 76.3492 32.6177 76.3492 31.3745C76.3492 29.8351 77.6907 28.7778 79.5955 28.7778C81.4807 28.7778 82.7731 29.8351 82.8166 31.3745H81.4688C81.3881 30.4841 80.6521 29.9467 79.5766 29.9467C78.501 29.9467 77.765 30.4905 77.765 31.2819C77.765 31.9126 78.2351 32.2838 79.385 32.5679L80.368 32.8092C82.1985 33.2421 82.959 33.9774 82.959 35.2824C82.959 36.9515 81.6295 37.9969 79.5148 37.9969C77.5363 37.9969 76.2005 36.9761 76.1142 35.3624L77.4809 35.3624Z" fill="white"/>
<path d="M85.8407 29.8044V31.3437H87.0777V32.401H85.8407V35.9869C85.8407 36.544 86.0884 36.8036 86.6321 36.8036C86.779 36.801 86.9256 36.7907 87.0713 36.7727V37.8237C86.8269 37.8694 86.5784 37.8901 86.3298 37.8855C85.0128 37.8855 84.4993 37.3908 84.4993 36.1293V32.401H83.5535V31.3437H84.4993V29.8044H85.8407Z" fill="white"/>
<path d="M87.7939 34.5963C87.7939 32.5497 88.9993 31.2637 90.8789 31.2637C92.7648 31.2637 93.9646 32.5497 93.9646 34.5963C93.9646 36.6485 92.7711 37.9289 90.8789 37.9289C88.9873 37.9289 87.7939 36.6485 87.7939 34.5963ZM92.6041 34.5963C92.6041 33.1924 91.9608 32.3638 90.8789 32.3638C89.797 32.3638 89.1544 33.1987 89.1544 34.5963C89.1544 36.0058 89.797 36.8281 90.8789 36.8281C91.9608 36.8281 92.6041 36.0058 92.6041 34.5963H92.6041Z" fill="white"/>
<path d="M95.0654 31.3437H96.3388V32.4508H96.3697C96.4559 32.1051 96.6585 31.7995 96.9434 31.5855C97.2283 31.3715 97.5782 31.262 97.9343 31.2756C98.0882 31.2751 98.2416 31.2918 98.3918 31.3255V32.5743C98.1975 32.515 97.9949 32.4877 97.7919 32.4936C97.5979 32.4858 97.4045 32.52 97.225 32.5939C97.0455 32.6678 96.8842 32.7797 96.752 32.9219C96.6198 33.064 96.52 33.2331 96.4593 33.4175C96.3987 33.6019 96.3786 33.7973 96.4006 33.9901V37.8483H95.0654L95.0654 31.3437Z" fill="white"/>
<path d="M104.548 35.9378C104.368 37.1186 103.218 37.9289 101.747 37.9289C99.8546 37.9289 98.6801 36.6611 98.6801 34.6272C98.6801 32.5869 99.8609 31.2637 101.691 31.2637C103.49 31.2637 104.622 32.4999 104.622 34.4721V34.9296H100.028V35.0102C100.007 35.2496 100.037 35.4908 100.116 35.7177C100.195 35.9446 100.321 36.1521 100.487 36.3263C100.652 36.5006 100.853 36.6376 101.076 36.7284C101.298 36.8191 101.538 36.8615 101.778 36.8526C102.093 36.8822 102.41 36.8091 102.68 36.6443C102.951 36.4795 103.161 36.2317 103.28 35.9378L104.548 35.9378ZM100.034 33.9964H103.286C103.298 33.7812 103.265 33.5658 103.19 33.3637C103.115 33.1617 102.999 32.9774 102.849 32.8224C102.699 32.6674 102.519 32.545 102.32 32.4629C102.12 32.3809 101.906 32.3409 101.691 32.3455C101.473 32.3442 101.258 32.386 101.057 32.4685C100.855 32.5509 100.672 32.6724 100.518 32.8258C100.364 32.9793 100.242 33.1618 100.159 33.3627C100.076 33.5636 100.034 33.779 100.034 33.9964V33.9964Z" fill="white"/>
<path d="M53.137 22.2111C53.4169 22.191 53.6978 22.2333 53.9594 22.3349C54.221 22.4365 54.4568 22.5949 54.6497 22.7987C54.8427 23.0025 54.988 23.2465 55.0753 23.5133C55.1625 23.78 55.1894 24.0628 55.1541 24.3412C55.1541 25.7107 54.4139 26.4979 53.137 26.4979H51.5886V22.2111H53.137ZM52.2544 25.8917H53.0626C53.2627 25.9037 53.4628 25.8709 53.6486 25.7957C53.8343 25.7205 54.001 25.6049 54.1364 25.4572C54.2718 25.3095 54.3726 25.1335 54.4314 24.942C54.4902 24.7504 54.5056 24.5482 54.4764 24.3499C54.5035 24.1525 54.4865 23.9515 54.4268 23.7613C54.3671 23.5712 54.2661 23.3966 54.131 23.2501C53.9958 23.1036 53.83 22.9888 53.6453 22.9139C53.4606 22.839 53.2616 22.8059 53.0626 22.8169H52.2544V25.8917Z" fill="white"/>
<path d="M55.9062 24.8791C55.8859 24.6665 55.9102 24.452 55.9776 24.2494C56.0451 24.0467 56.1541 23.8604 56.2977 23.7024C56.4414 23.5443 56.6165 23.418 56.8118 23.3316C57.0071 23.2452 57.2183 23.2006 57.4319 23.2006C57.6455 23.2006 57.8567 23.2452 58.052 23.3316C58.2473 23.418 58.4224 23.5443 58.566 23.7024C58.7097 23.8604 58.8187 24.0467 58.8861 24.2494C58.9535 24.452 58.9779 24.6665 58.9575 24.8791C58.9782 25.092 58.9542 25.3068 58.887 25.5097C58.8197 25.7127 58.7108 25.8994 58.5671 26.0577C58.4234 26.2161 58.2482 26.3426 58.0527 26.4292C57.8572 26.5158 57.6457 26.5606 57.4319 26.5606C57.2181 26.5606 57.0066 26.5158 56.8111 26.4292C56.6156 26.3426 56.4404 26.2161 56.2967 26.0577C56.153 25.8994 56.044 25.7127 55.9768 25.5097C55.9095 25.3068 55.8855 25.092 55.9062 24.8791ZM58.3008 24.8791C58.3008 24.1779 57.9858 23.7678 57.4329 23.7678C56.878 23.7678 56.5658 24.1779 56.5658 24.8791C56.5658 25.586 56.878 25.9929 57.4329 25.9929C57.9858 25.9929 58.3008 25.5832 58.3008 24.8791H58.3008Z" fill="white"/>
<path d="M63.0135 26.4981H62.3512L61.6825 24.1154H61.632L60.9662 26.4981H60.3102L59.4185 23.263H60.066L60.6456 25.7316H60.6933L61.3584 23.263H61.9709L62.636 25.7316H62.6865L63.2632 23.263H63.9017L63.0135 26.4981Z" fill="white"/>
<path d="M64.6515 23.263H65.2661V23.7769H65.3138C65.3947 23.5923 65.5312 23.4376 65.7043 23.3343C65.8773 23.231 66.0783 23.1842 66.2792 23.2005C66.4366 23.1887 66.5947 23.2124 66.7416 23.27C66.8886 23.3275 67.0208 23.4174 67.1283 23.533C67.2359 23.6485 67.316 23.7868 67.3629 23.9375C67.4097 24.0883 67.4221 24.2476 67.3989 24.4038V26.4981H66.7605V24.5641C66.7605 24.0442 66.5346 23.7857 66.0624 23.7857C65.9555 23.7807 65.8488 23.7989 65.7496 23.839C65.6505 23.8791 65.5611 23.9402 65.4878 24.0181C65.4144 24.0959 65.3587 24.1888 65.3246 24.2902C65.2904 24.3915 65.2786 24.4991 65.2899 24.6055V26.4981H64.6515L64.6515 23.263Z" fill="white"/>
<path d="M68.4164 22H69.0549V26.498H68.4164V22Z" fill="white"/>
<path d="M69.9424 24.8789C69.922 24.6663 69.9464 24.4518 70.0138 24.2491C70.0812 24.0465 70.1903 23.8601 70.3339 23.7021C70.4776 23.544 70.6527 23.4178 70.848 23.3313C71.0434 23.2449 71.2546 23.2003 71.4682 23.2003C71.6818 23.2003 71.893 23.2449 72.0883 23.3313C72.2836 23.4178 72.4587 23.544 72.6024 23.7021C72.7461 23.8601 72.8551 24.0465 72.9225 24.2491C72.99 24.4518 73.0143 24.6663 72.994 24.8789C73.0147 25.0917 72.9906 25.3065 72.9234 25.5095C72.8561 25.7125 72.7471 25.8992 72.6034 26.0575C72.4597 26.2159 72.2845 26.3424 72.089 26.429C71.8935 26.5156 71.682 26.5603 71.4682 26.5603C71.2543 26.5603 71.0429 26.5156 70.8474 26.429C70.6518 26.3424 70.4766 26.2159 70.3329 26.0575C70.1892 25.8992 70.0802 25.7125 70.013 25.5095C69.9457 25.3065 69.9217 25.0917 69.9424 24.8789ZM72.3369 24.8789C72.3369 24.1777 72.0219 23.7676 71.469 23.7676C70.9141 23.7676 70.6019 24.1777 70.6019 24.8789C70.6019 25.5858 70.9141 25.9927 71.469 25.9927C72.0219 25.9927 72.3369 25.583 72.3369 24.8789H72.3369Z" fill="white"/>
<path d="M73.6661 25.5832C73.6661 25.0009 74.0997 24.6652 74.8694 24.6175L75.7457 24.567V24.2877C75.7457 23.946 75.5198 23.7531 75.0834 23.7531C74.7269 23.7531 74.48 23.8839 74.4091 24.1127H73.791C73.8562 23.557 74.3789 23.2006 75.1128 23.2006C75.9239 23.2006 76.3813 23.6043 76.3813 24.2877V26.4981H75.7667V26.0435H75.7162C75.6137 26.2066 75.4697 26.3395 75.299 26.4288C75.1283 26.518 74.9369 26.5603 74.7445 26.5514C74.6087 26.5655 74.4714 26.5511 74.3415 26.5089C74.2117 26.4667 74.0921 26.3978 73.9905 26.3066C73.8889 26.2154 73.8075 26.1039 73.7517 25.9793C73.6958 25.8547 73.6666 25.7198 73.6661 25.5832ZM75.7457 25.3068V25.0363L74.9557 25.0868C74.5101 25.1167 74.3081 25.2682 74.3081 25.5534C74.3081 25.8446 74.5607 26.014 74.908 26.014C75.0097 26.0243 75.1125 26.014 75.2102 25.9838C75.308 25.9536 75.3986 25.904 75.4767 25.838C75.5549 25.772 75.619 25.691 75.6652 25.5997C75.7114 25.5085 75.7388 25.4088 75.7457 25.3068Z" fill="white"/>
<path d="M77.2204 24.879C77.2204 23.8568 77.7459 23.2092 78.5633 23.2092C78.7655 23.1999 78.9661 23.2483 79.1418 23.3488C79.3175 23.4493 79.4609 23.5978 79.5553 23.7768H79.6031V22H80.2415V26.498H79.6297V25.9869H79.5792C79.4775 26.1647 79.329 26.3113 79.15 26.4107C78.9709 26.5102 78.768 26.5588 78.5633 26.5513C77.7403 26.5513 77.2204 25.9037 77.2204 24.879ZM77.8799 24.879C77.8799 25.5652 78.2034 25.9781 78.7443 25.9781C79.2824 25.9781 79.615 25.5593 79.615 24.8819C79.615 24.2076 79.2789 23.7828 78.7443 23.7828C78.2069 23.7828 77.8799 24.1985 77.8799 24.879H77.8799Z" fill="white"/>
<path d="M82.8834 24.8791C82.8631 24.6665 82.8874 24.452 82.9548 24.2494C83.0222 24.0467 83.1312 23.8604 83.2749 23.7024C83.4185 23.5443 83.5936 23.418 83.7889 23.3316C83.9842 23.2452 84.1955 23.2006 84.409 23.2006C84.6226 23.2006 84.8338 23.2452 85.0291 23.3316C85.2244 23.418 85.3995 23.5443 85.5432 23.7024C85.6868 23.8604 85.7958 24.0467 85.8633 24.2494C85.9307 24.452 85.955 24.6665 85.9347 24.8791C85.9554 25.092 85.9314 25.3068 85.8641 25.5097C85.7969 25.7127 85.6879 25.8994 85.5442 26.0577C85.4005 26.2161 85.2253 26.3426 85.0298 26.4292C84.8343 26.5158 84.6229 26.5606 84.409 26.5606C84.1952 26.5606 83.9837 26.5158 83.7882 26.4292C83.5927 26.3426 83.4175 26.2161 83.2738 26.0577C83.1301 25.8994 83.0212 25.7127 82.9539 25.5097C82.8867 25.3068 82.8627 25.092 82.8834 24.8791ZM85.278 24.8791C85.278 24.1779 84.9629 23.7678 84.4101 23.7678C83.8551 23.7678 83.5429 24.1779 83.5429 24.8791C83.5429 25.586 83.8551 25.9929 84.4101 25.9929C84.9629 25.9929 85.278 25.5832 85.278 24.8791Z" fill="white"/>
<path d="M86.7911 23.263H87.4057V23.7769H87.4534C87.5344 23.5923 87.6709 23.4376 87.8439 23.3343C88.017 23.231 88.218 23.1842 88.4188 23.2005C88.5763 23.1887 88.7343 23.2124 88.8813 23.27C89.0283 23.3275 89.1605 23.4174 89.268 23.533C89.3755 23.6485 89.4557 23.7868 89.5025 23.9375C89.5494 24.0883 89.5617 24.2476 89.5386 24.4038V26.4981H88.9001V24.5641C88.9001 24.0442 88.6742 23.7857 88.202 23.7857C88.0952 23.7807 87.9885 23.7989 87.8893 23.839C87.7901 23.8791 87.7008 23.9402 87.6274 24.0181C87.554 24.0959 87.4984 24.1888 87.4642 24.2902C87.4301 24.3915 87.4183 24.4991 87.4296 24.6055V26.4981H86.7911V23.263Z" fill="white"/>
<path d="M93.1461 22.4573V23.2775H93.847V23.8153H93.1461V25.4788C93.1461 25.8177 93.2857 25.966 93.6035 25.966C93.6849 25.9658 93.7662 25.9609 93.847 25.9513V26.4831C93.7323 26.5036 93.6162 26.5145 93.4997 26.5157C92.7897 26.5157 92.5069 26.266 92.5069 25.6422V23.8152H91.9934V23.2775H92.5069V22.4573H93.1461Z" fill="white"/>
<path d="M94.7194 22H95.3523V23.7828H95.4028C95.4877 23.5965 95.6279 23.4409 95.8044 23.3372C95.981 23.2335 96.1852 23.1867 96.3892 23.2033C96.5458 23.1947 96.7024 23.2209 96.8477 23.2798C96.993 23.3388 97.1235 23.4291 97.2299 23.5442C97.3364 23.6594 97.416 23.7967 97.4633 23.9462C97.5106 24.0958 97.5242 24.2539 97.5034 24.4093V26.498H96.8643V24.5668C96.8643 24.0501 96.6236 23.7884 96.1725 23.7884C96.0628 23.7794 95.9524 23.7945 95.8491 23.8326C95.7458 23.8707 95.6521 23.9309 95.5745 24.009C95.4969 24.0872 95.4373 24.1813 95.3999 24.2849C95.3625 24.3884 95.3482 24.4989 95.3579 24.6086V26.498H94.7195L94.7194 22Z" fill="white"/>
<path d="M101.226 25.6244C101.139 25.9201 100.951 26.1758 100.695 26.3469C100.439 26.518 100.13 26.5935 99.8241 26.5603C99.611 26.566 99.3992 26.5251 99.2034 26.4407C99.0076 26.3563 98.8326 26.2302 98.6904 26.0713C98.5482 25.9125 98.4423 25.7246 98.38 25.5207C98.3177 25.3167 98.3006 25.1017 98.3297 24.8905C98.3013 24.6787 98.3188 24.4632 98.3809 24.2587C98.4431 24.0541 98.5484 23.8653 98.6899 23.7051C98.8313 23.5448 99.0055 23.4168 99.2007 23.3297C99.3959 23.2426 99.6076 23.1985 99.8213 23.2003C100.721 23.2003 101.265 23.8153 101.265 24.8312V25.054H98.9801V25.0898C98.9701 25.2085 98.985 25.328 99.0239 25.4406C99.0628 25.5532 99.1248 25.6565 99.2059 25.7437C99.287 25.831 99.3855 25.9003 99.495 25.9473C99.6044 25.9943 99.7225 26.0179 99.8417 26.0166C99.9944 26.0349 100.149 26.0074 100.286 25.9376C100.423 25.8677 100.536 25.7587 100.611 25.6244L101.226 25.6244ZM98.9801 24.5818H100.614C100.622 24.4732 100.607 24.3642 100.571 24.2616C100.534 24.1591 100.477 24.0654 100.402 23.9864C100.327 23.9075 100.236 23.8451 100.135 23.8033C100.035 23.7615 99.9266 23.7412 99.8178 23.7437C99.7074 23.7424 99.5978 23.7631 99.4955 23.8047C99.3932 23.8463 99.3003 23.908 99.2222 23.9861C99.1442 24.0642 99.0825 24.1572 99.0409 24.2595C98.9993 24.3618 98.9787 24.4714 98.9801 24.5818H98.9801Z" fill="white"/>
</g>
<defs>
<filter id="filter0_d_3_340" x="0.5" y="0.875" width="137" height="69" filterUnits="userSpaceOnUse" color-interpolation-filters="sRGB">
<feFlood flood-opacity="0" result="BackgroundImageFix"/>
<feColorMatrix in="SourceAlpha" type="matrix" values="0 0 0 0 0 0 0 0 0 0 0 0 0 0 0 0 0 0 127 0" result="hardAlpha"/>
<feOffset dy="4.375"/>
<feGaussianBlur stdDeviation="8.75"/>
<feColorMatrix type="matrix" values="0 0 0 0 0.0745098 0 0 0 0 0.305882 0 0 0 0 0.290196 0 0 0 0.18 0"/>
<feBlend mode="normal" in2="BackgroundImageFix" result="effect1_dropShadow_3_340"/>
<feBlend mode="normal" in="SourceGraphic" in2="effect1_dropShadow_3_340" result="shape"/>
</filter>
</defs>
</svg>
