<svg width="138" height="70" viewBox="0 0 138 70" fill="none" xmlns="http://www.w3.org/2000/svg">
<g filter="url(#filter0_d_3_338)">
<rect x="18" y="14" width="102" height="34" rx="5.25" fill="#2D2D2D"/>
<path d="M55.7732 24.2343C55.7852 24.4771 55.7477 24.7197 55.663 24.9475C55.5782 25.1753 55.448 25.3834 55.2802 25.5593C55.0922 25.7542 54.8652 25.9073 54.6139 26.0085C54.3627 26.1097 54.0929 26.1567 53.8222 26.1465C53.5498 26.1489 53.2797 26.0969 53.0277 25.9934C52.7757 25.89 52.5469 25.7372 52.3548 25.544C52.1627 25.3509 52.0111 25.1213 51.909 24.8688C51.8069 24.6162 51.7563 24.3458 51.7602 24.0734C51.7564 23.8011 51.807 23.5306 51.9091 23.2781C52.0112 23.0255 52.1627 22.7959 52.3548 22.6028C52.5469 22.4096 52.7757 22.2568 53.0277 22.1533C53.2797 22.0498 53.5498 21.9977 53.8222 22.0001C54.1023 21.9992 54.3795 22.0559 54.6368 22.1664C54.8758 22.2633 55.0885 22.4153 55.2577 22.6099L54.9088 22.9591C54.7758 22.8026 54.6087 22.6787 54.4203 22.5971C54.2319 22.5154 54.0273 22.4782 53.8222 22.4881C53.6158 22.4871 53.4112 22.5277 53.2208 22.6075C53.0305 22.6874 52.8582 22.8048 52.7142 22.9529C52.5703 23.1009 52.4578 23.2764 52.3833 23.469C52.3089 23.6615 52.274 23.8671 52.2809 24.0734C52.276 24.3825 52.3629 24.686 52.5308 24.9456C52.6986 25.2052 52.9397 25.4091 53.2236 25.5314C53.5074 25.6537 53.8212 25.689 54.1251 25.6328C54.4291 25.5766 54.7095 25.4314 54.9308 25.2156C55.1344 24.9961 55.2525 24.7108 55.2634 24.4116H53.8222V23.9349H55.7454C55.7636 24.0336 55.7729 24.1339 55.7732 24.2343Z" fill="white" stroke="white" stroke-width="0.175" stroke-miterlimit="10"/>
<path d="M58.8222 22.5766H57.0147V23.835H58.6446V24.3118H57.0147V25.5702H58.8222V26.0579H56.505V22.0889H58.8222V22.5766Z" fill="white" stroke="white" stroke-width="0.175" stroke-miterlimit="10"/>
<path d="M60.9728 26.0579H60.4624V22.5766H59.3539V22.0889H62.0813V22.5766H60.9728V26.0579Z" fill="white" stroke="white" stroke-width="0.175" stroke-miterlimit="10"/>
<path d="M64.0549 26.0579V22.0889H64.5646V26.0579H64.0549Z" fill="white" stroke="white" stroke-width="0.175" stroke-miterlimit="10"/>
<path d="M66.8267 26.0579H66.3164V22.5766H65.2079V22.0889H67.9353V22.5766H66.8267V26.0579Z" fill="white" stroke="white" stroke-width="0.175" stroke-miterlimit="10"/>
<path d="M73.0987 25.545C72.7123 25.9301 72.1891 26.1464 71.6435 26.1464C71.098 26.1464 70.5748 25.9301 70.1884 25.545C69.9973 25.3514 69.8471 25.1213 69.7466 24.8685C69.6462 24.6157 69.5976 24.3453 69.6038 24.0734C69.5976 23.8014 69.6462 23.531 69.7466 23.2782C69.8471 23.0254 69.9973 22.7953 70.1884 22.6018C70.3794 22.4108 70.6061 22.2593 70.8557 22.156C71.1052 22.0528 71.3727 21.9998 71.6428 22C71.9129 22.0002 72.1803 22.0537 72.4296 22.1574C72.679 22.2611 72.9055 22.413 73.0961 22.6044C73.2873 22.7974 73.4379 23.0269 73.5387 23.2793C73.6396 23.5316 73.6888 23.8017 73.6833 24.0734C73.6893 24.3453 73.6407 24.6157 73.5402 24.8684C73.4398 25.1212 73.2896 25.3513 73.0987 25.545ZM70.565 25.2126C70.8511 25.4982 71.2389 25.6587 71.6432 25.6587C72.0475 25.6587 72.4353 25.4982 72.7214 25.2126C72.8681 25.0624 72.9829 24.884 73.0587 24.6882C73.1346 24.4924 73.1699 24.2832 73.1626 24.0734C73.1699 23.8635 73.1346 23.6544 73.0587 23.4585C72.9829 23.2627 72.8681 23.0843 72.7214 22.9341C72.4353 22.6485 72.0475 22.4881 71.6432 22.4881C71.2389 22.4881 70.8511 22.6485 70.565 22.9341C70.4185 23.0844 70.3039 23.2629 70.2282 23.4587C70.1525 23.6545 70.1172 23.8636 70.1245 24.0734C70.1172 24.2832 70.1525 24.4923 70.2282 24.688C70.3039 24.8838 70.4185 25.0623 70.565 25.2126Z" fill="white" stroke="white" stroke-width="0.175" stroke-miterlimit="10"/>
<path d="M74.399 26.0579V22.0889H75.0199L76.9488 25.1765H76.9708L76.9488 24.4116V22.0889H77.4592V26.0579H76.9269L74.9087 22.8208H74.8868L74.9087 23.5857V26.0579H74.399Z" fill="white" stroke="white" stroke-width="0.175" stroke-miterlimit="10"/>
<path d="M69.4778 31.8473C68.9218 31.8494 68.3789 32.0162 67.9176 32.3266C67.4563 32.6371 67.0974 33.0772 66.8861 33.5915C66.6748 34.1058 66.6206 34.6712 66.7303 35.2162C66.8401 35.7613 67.1089 36.2616 67.5028 36.654C67.8967 37.0464 68.3981 37.3133 68.9435 37.421C69.489 37.5287 70.0542 37.4724 70.5676 37.2591C71.0811 37.0458 71.5199 36.6852 71.8286 36.2228C72.1373 35.7603 72.302 35.2168 72.302 34.6608C72.3074 34.2889 72.2381 33.9197 72.0979 33.5752C71.9578 33.2307 71.7498 32.9178 71.4863 32.6554C71.2228 32.3929 70.9092 32.1861 70.5642 32.0472C70.2191 31.9084 69.8497 31.8404 69.4778 31.8473ZM69.4778 36.3659C69.1354 36.3903 68.7936 36.3111 68.4968 36.1385C68.2001 35.9659 67.9622 35.708 67.8141 35.3983C67.666 35.0886 67.6145 34.7415 67.6664 34.4022C67.7184 34.0629 67.8713 33.747 68.1052 33.4958C68.3391 33.2446 68.6433 33.0696 68.9781 32.9937C69.3129 32.9177 69.6627 32.9444 69.9822 33.0701C70.3016 33.1958 70.5758 33.4147 70.7691 33.6984C70.9623 33.9822 71.0657 34.3175 71.0657 34.6608C71.0761 34.8776 71.043 35.0944 70.9683 35.2983C70.8937 35.5022 70.779 35.689 70.6311 35.8479C70.4831 36.0068 70.3048 36.1345 70.1068 36.2235C69.9087 36.3124 69.6949 36.3609 69.4778 36.3659ZM63.3169 31.8473C62.7609 31.8494 62.218 32.0162 61.7567 32.3266C61.2954 32.637 60.9365 33.0772 60.7251 33.5915C60.5138 34.1058 60.4596 34.6711 60.5694 35.2162C60.6791 35.7613 60.9479 36.2616 61.3418 36.654C61.7357 37.0464 62.2371 37.3133 62.7826 37.421C63.328 37.5287 63.8932 37.4724 64.4067 37.2591C64.9202 37.0459 65.3589 36.6852 65.6676 36.2228C65.9763 35.7603 66.141 35.2168 66.141 34.6608C66.1465 34.2889 66.0771 33.9197 65.937 33.5752C65.7969 33.2307 65.5889 32.9179 65.3254 32.6554C65.0619 32.3929 64.7483 32.1861 64.4033 32.0473C64.0582 31.9084 63.6888 31.8404 63.3169 31.8473ZM63.3169 36.3659C62.9745 36.3903 62.6327 36.3111 62.3359 36.1385C62.0392 35.9659 61.8013 35.708 61.6532 35.3983C61.5051 35.0886 61.4536 34.7415 61.5056 34.4022C61.5575 34.0629 61.7104 33.747 61.9443 33.4958C62.1783 33.2446 62.4824 33.0696 62.8172 32.9937C63.152 32.9177 63.5019 32.9444 63.8213 33.0701C64.1407 33.1958 64.4149 33.4147 64.6082 33.6984C64.8014 33.9822 64.9048 34.3175 64.9048 34.6608C64.9152 34.8776 64.8821 35.0944 64.8075 35.2983C64.7328 35.5022 64.6181 35.6891 64.4702 35.8479C64.3222 36.0068 64.144 36.1345 63.9459 36.2235C63.7478 36.3124 63.534 36.3609 63.3169 36.3659ZM55.9882 32.7106V33.9041H58.8444C58.8032 34.464 58.5741 34.9935 58.1943 35.4068C57.9081 35.6986 57.5639 35.9271 57.1839 36.0776C56.8039 36.2281 56.3966 36.2973 55.9882 36.2807C55.1534 36.2694 54.3566 35.9298 53.7702 35.3354C53.1838 34.7411 52.8551 33.9397 52.8551 33.1048C52.8551 32.2699 53.1838 31.4686 53.7702 30.8742C54.3566 30.2799 55.1534 29.9403 55.9882 29.929C56.7901 29.9185 57.5637 30.2249 58.141 30.7816L58.9829 29.9397C58.589 29.5497 58.1213 29.2423 57.607 29.0355C57.0928 28.8287 56.5424 28.7267 55.9882 28.7354C55.4091 28.7269 54.834 28.8337 54.2965 29.0495C53.759 29.2653 53.2697 29.5858 52.8572 29.9924C52.4446 30.399 52.117 30.8835 51.8934 31.4179C51.6698 31.9522 51.5547 32.5256 51.5547 33.1048C51.5547 33.684 51.6698 34.2575 51.8934 34.7918C52.117 35.3261 52.4446 35.8107 52.8572 36.2172C53.2697 36.6238 53.759 36.9443 54.2965 37.1601C54.834 37.3759 55.4091 37.4827 55.9882 37.4743C56.5541 37.4978 57.1185 37.4006 57.644 37.1893C58.1695 36.978 58.6441 36.6574 59.0362 36.2487C59.7324 35.4888 60.1034 34.4866 60.07 33.4566C60.0727 33.2064 60.0513 32.9566 60.006 32.7106H55.9882ZM85.96 33.6377C85.7909 33.1281 85.4691 32.6829 85.0381 32.3626C84.6072 32.0422 84.0882 31.8623 83.5514 31.8473C83.19 31.8495 82.8327 31.9251 82.5012 32.0693C82.1697 32.2135 81.8709 32.4235 81.6229 32.6865C81.3749 32.9495 81.1827 33.26 81.0581 33.5993C80.9335 33.9387 80.879 34.2998 80.8979 34.6608C80.8897 35.0307 80.9562 35.3984 81.0934 35.742C81.2306 36.0857 81.4356 36.3981 81.6962 36.6607C81.9568 36.9234 82.2677 37.1308 82.6103 37.2705C82.9528 37.4103 83.3201 37.4796 83.69 37.4743C84.1535 37.4769 84.6104 37.3643 85.0196 37.1466C85.4288 36.929 85.7776 36.6131 86.0345 36.2274L85.0754 35.588C84.9317 35.8266 84.7285 36.0238 84.4856 36.1602C84.2427 36.2966 83.9686 36.3675 83.69 36.3659C83.4034 36.3769 83.1201 36.3015 82.8768 36.1495C82.6336 35.9974 82.4416 35.7758 82.3259 35.5134L86.0879 33.9574L85.96 33.6377ZM82.1234 34.5756C82.1102 34.3708 82.1379 34.1654 82.205 33.9715C82.2721 33.7776 82.3772 33.599 82.5141 33.4461C82.651 33.2933 82.8171 33.1693 83.0025 33.0815C83.188 32.9936 83.3891 32.9436 83.5941 32.9344C83.8075 32.9203 84.0204 32.9694 84.2061 33.0756C84.3918 33.1817 84.5422 33.3401 84.6385 33.5312L82.1234 34.5756ZM79.0648 37.3037H80.301V29.0338H79.0648V37.3037ZM77.0399 32.4761H76.9973C76.8094 32.2719 76.58 32.1101 76.3245 32.0017C76.069 31.8933 75.7934 31.8406 75.5159 31.8473C74.7904 31.8782 74.1049 32.1881 73.6025 32.7123C73.1001 33.2366 72.8196 33.9347 72.8196 34.6608C72.8196 35.3869 73.1001 36.085 73.6025 36.6092C74.1049 37.1335 74.7904 37.4434 75.5159 37.4743C75.7945 37.4817 76.0713 37.4283 76.3271 37.3179C76.5829 37.2075 76.8116 37.0427 76.9973 36.8349H77.0399V37.2398C77.0399 38.3163 76.4645 38.8917 75.5372 38.8917C75.2282 38.8843 74.9284 38.7851 74.676 38.6067C74.4236 38.4283 74.23 38.1787 74.1199 37.8899L73.0435 38.3376C73.2463 38.8315 73.5921 39.2536 74.0364 39.5498C74.4806 39.846 75.0033 40.0028 75.5372 40.0001C76.9866 40.0001 78.2122 39.1475 78.2122 37.0693V32.0178H77.0399V32.4761ZM75.6226 36.3659C75.1953 36.3297 74.7971 36.1344 74.507 35.8186C74.2169 35.5028 74.0559 35.0896 74.0559 34.6608C74.0559 34.232 74.2169 33.8188 74.507 33.503C74.7971 33.1872 75.1953 32.9919 75.6226 32.9557C75.8351 32.966 76.0434 33.0191 76.2351 33.1117C76.4267 33.2043 76.5977 33.3346 76.738 33.4947C76.8782 33.6548 76.9847 33.8415 77.0512 34.0437C77.1178 34.2458 77.1429 34.4593 77.1252 34.6714C77.1418 34.8822 77.1157 35.0942 77.0485 35.2946C76.9814 35.4951 76.8744 35.68 76.7341 35.8382C76.5939 35.9963 76.4231 36.1246 76.2321 36.2153C76.0411 36.306 75.8338 36.3572 75.6226 36.3659ZM91.7508 29.034H88.793V37.3037H90.0272V34.1706H91.7508C92.0999 34.1897 92.4492 34.1375 92.7775 34.0171C93.1057 33.8966 93.406 33.7106 93.6599 33.4702C93.9138 33.2298 94.116 32.9402 94.2542 32.619C94.3924 32.2979 94.4637 31.9519 94.4637 31.6023C94.4637 31.2526 94.3924 30.9067 94.2542 30.5855C94.116 30.2644 93.9138 29.9747 93.6599 29.7344C93.406 29.494 93.1057 29.3079 92.7775 29.1875C92.4492 29.0671 92.0999 29.0148 91.7508 29.034ZM91.7826 33.0197H90.0272V30.1849H91.7826C91.9713 30.181 92.1587 30.2148 92.3341 30.2843C92.5095 30.3537 92.6693 30.4575 92.804 30.5895C92.9388 30.7215 93.0459 30.8791 93.119 31.053C93.1921 31.2269 93.2297 31.4137 93.2297 31.6023C93.2297 31.791 93.1921 31.9777 93.119 32.1516C93.0459 32.3255 92.9388 32.4831 92.804 32.6151C92.6693 32.7471 92.5095 32.8509 92.3341 32.9204C92.1587 32.9898 91.9713 33.0236 91.7826 33.0197ZM99.411 31.8321C98.9605 31.8058 98.5121 31.9116 98.1209 32.1365C97.7296 32.3614 97.4126 32.6956 97.2086 33.0981L98.3045 33.5556C98.4131 33.3559 98.5776 33.1921 98.7779 33.0844C98.9782 32.9766 99.2056 32.9297 99.4322 32.9492C99.7453 32.9186 100.058 33.0134 100.301 33.2129C100.544 33.4123 100.699 33.7001 100.73 34.0131V34.0982C100.334 33.8876 99.8917 33.778 99.4428 33.779C98.2619 33.779 97.0597 34.428 97.0597 35.6409C97.0712 35.8965 97.1339 36.1472 97.2441 36.3781C97.3543 36.6091 97.5098 36.8155 97.7013 36.9852C97.8928 37.1549 98.1164 37.2843 98.3589 37.3659C98.6015 37.4475 98.8579 37.4796 99.113 37.4602C99.4238 37.4785 99.7338 37.4131 100.011 37.2709C100.288 37.1287 100.521 36.9149 100.688 36.6516H100.73V37.29H101.922V34.1195C101.922 32.6513 100.826 31.8321 99.411 31.8321ZM99.262 36.3643C98.8577 36.3643 98.2938 36.1623 98.2938 35.6622C98.2938 35.0239 98.996 34.7791 99.6025 34.7791C99.9964 34.7686 100.386 34.8642 100.73 35.0557C100.685 35.4144 100.511 35.7446 100.241 35.9852C99.9714 36.2257 99.6235 36.3604 99.262 36.3643ZM106.263 32.0129L104.848 35.5983H104.805L103.337 32.0129H102.007L104.209 37.024L102.954 39.8115H104.241L107.635 32.0129H106.263ZM95.1446 37.3037H96.3787V29.034H95.1446V37.3037Z" fill="white"/>
<path d="M31.3085 22.4448C31.0916 22.7041 30.9821 23.0366 31.0024 23.3741V38.0041C30.982 38.3416 31.0916 38.6741 31.3085 38.9334L31.3575 38.9811L39.5529 30.7858V30.5924L31.3575 22.3967L31.3085 22.4448Z" fill="url(#paint0_linear_3_338)"/>
<path d="M42.2845 33.5187L39.5529 30.7858V30.5924L42.2851 27.8601L42.3467 27.8952L45.5834 29.7343C46.5079 30.2595 46.5079 31.119 45.5834 31.6445L42.3467 33.4836L42.2845 33.5187Z" fill="url(#paint1_linear_3_338)"/>
<path d="M42.3468 33.4834L39.553 30.6892L31.3086 38.9335C31.497 39.0997 31.7375 39.1947 31.9886 39.2021C32.2397 39.2095 32.4854 39.1289 32.6833 38.9741L42.3468 33.4834Z" fill="url(#paint2_linear_3_338)"/>
<path d="M42.3468 27.895L32.6833 22.4042C32.4854 22.2495 32.2397 22.1688 31.9886 22.1763C31.7375 22.1837 31.497 22.2787 31.3086 22.4448L39.553 30.6892L42.3468 27.895Z" fill="url(#paint3_linear_3_338)"/>
<path opacity="0.2" d="M42.2852 33.4219L32.6833 38.8775C32.493 39.0223 32.2608 39.1014 32.0218 39.1026C31.7827 39.1039 31.5497 39.0274 31.3579 38.8846L31.3086 38.9339L31.3575 38.9816L31.3579 38.9812C31.5496 39.1241 31.7826 39.2007 32.0218 39.1994C32.2609 39.1981 32.4931 39.1191 32.6833 38.9742L42.3468 33.4834L42.2852 33.4219Z" fill="#3B3B3B"/>
<path opacity="0.12" d="M31.3085 38.8371C31.0916 38.5777 30.9821 38.2452 31.0024 37.9077V38.0044C30.9821 38.3419 31.0916 38.6743 31.3085 38.9337L31.3578 38.8844L31.3085 38.8371Z" fill="#3B3B3B"/>
<path opacity="0.12" d="M45.5834 31.5476L42.2852 33.4218L42.3467 33.4833L45.5834 31.6443C45.7738 31.5616 45.9385 31.4295 46.0605 31.2616C46.1824 31.0936 46.2571 30.8961 46.2768 30.6895C46.2359 30.8766 46.1519 31.0515 46.0315 31.2005C45.9112 31.3495 45.7577 31.4683 45.5834 31.5476Z" fill="#3B3B3B"/>
<path opacity="0.25" d="M32.6833 22.5012L45.5835 29.8307C45.7579 29.91 45.9114 30.0289 46.0318 30.1779C46.1521 30.327 46.2361 30.502 46.2769 30.6892C46.2574 30.4825 46.1827 30.2849 46.0607 30.1168C45.9388 29.9488 45.7739 29.8166 45.5835 29.7341L32.6833 22.4046C31.7587 21.8793 31.0024 22.3156 31.0024 23.3745V23.4712C31.0024 22.4123 31.7587 21.976 32.6833 22.5012Z" fill="white"/>
</g>
<defs>
<filter id="filter0_d_3_338" x="0.5" y="0.875" width="137" height="69" filterUnits="userSpaceOnUse" color-interpolation-filters="sRGB">
<feFlood flood-opacity="0" result="BackgroundImageFix"/>
<feColorMatrix in="SourceAlpha" type="matrix" values="0 0 0 0 0 0 0 0 0 0 0 0 0 0 0 0 0 0 127 0" result="hardAlpha"/>
<feOffset dy="4.375"/>
<feGaussianBlur stdDeviation="8.75"/>
<feColorMatrix type="matrix" values="0 0 0 0 0.0745098 0 0 0 0 0.305882 0 0 0 0 0.290196 0 0 0 0.18 0"/>
<feBlend mode="normal" in2="BackgroundImageFix" result="effect1_dropShadow_3_338"/>
<feBlend mode="normal" in="SourceGraphic" in2="effect1_dropShadow_3_338" result="shape"/>
</filter>
<linearGradient id="paint0_linear_3_338" x1="38.8261" y1="23.2198" x2="27.7245" y2="34.3215" gradientUnits="userSpaceOnUse">
<stop stop-color="#00A0FF"/>
<stop offset="0.00657" stop-color="#00A1FF"/>
<stop offset="0.2601" stop-color="#00BEFF"/>
<stop offset="0.5122" stop-color="#00D2FF"/>
<stop offset="0.7604" stop-color="#00DFFF"/>
<stop offset="1" stop-color="#00E3FF"/>
</linearGradient>
<linearGradient id="paint1_linear_3_338" x1="46.7871" y1="30.6894" x2="30.7807" y2="30.6894" gradientUnits="userSpaceOnUse">
<stop stop-color="#FFE000"/>
<stop offset="0.4087" stop-color="#FFBD00"/>
<stop offset="0.7754" stop-color="#FFA500"/>
<stop offset="1" stop-color="#FF9C00"/>
</linearGradient>
<linearGradient id="paint2_linear_3_338" x1="40.8287" y1="32.2074" x2="25.7739" y2="47.2622" gradientUnits="userSpaceOnUse">
<stop stop-color="#FF3A44"/>
<stop offset="1" stop-color="#C31162"/>
</linearGradient>
<linearGradient id="paint3_linear_3_338" x1="29.2327" y1="17.5749" x2="35.9553" y2="24.2975" gradientUnits="userSpaceOnUse">
<stop stop-color="#32A071"/>
<stop offset="0.0685" stop-color="#2DA771"/>
<stop offset="0.4762" stop-color="#15CF74"/>
<stop offset="0.8009" stop-color="#06E775"/>
<stop offset="1" stop-color="#00F076"/>
</linearGradient>
</defs>
</svg>
