<svg width="91" height="69" viewBox="0 0 91 69" fill="none" xmlns="http://www.w3.org/2000/svg">
<g clip-path="url(#clip0_2_75)">
<path d="M56.5177 18.3956L45.5103 45.7308L34.502 18.3956L45.5103 7.31473L56.5177 18.3956Z" fill="#171617"/>
<path d="M34.502 18.3946L34.5556 31.8504L16.2071 13.381L16.2278 0L34.502 18.3946Z" fill="#171617"/>
<path d="M56.5177 18.3946L56.4642 31.8504L74.7929 13.4018V0L56.5177 18.3946Z" fill="#171617"/>
<path d="M18.9911 56.8376L15.105 68.7961H12.1518L9.53785 60.6983L6.83933 68.7961H3.90309L0 56.8376H2.85074L5.53235 65.2428L8.33235 56.8376H10.8777L13.5932 65.3109L16.3593 56.8376H18.9902H18.9911Z" fill="#171617"/>
<path d="M35.8259 66.5741V68.7948H26.6273V56.8362H35.6051V59.0569H29.3596V61.6541H34.875V63.8067H29.3596V66.5741H35.8259V66.5741Z" fill="#171617"/>
<path d="M44.1 68.5479C43.4263 68.2462 42.8748 67.8159 42.4454 67.2579L43.9732 65.4126C44.6177 66.2894 45.3534 66.7282 46.1793 66.7282C47.2993 66.7282 47.8593 66.0681 47.8593 64.7468V59.0579H43.6847V56.8372H50.5917V64.5926C50.5917 66.0614 50.229 67.1633 49.5055 67.8982C48.7811 68.633 47.7175 69 46.3146 69C45.5113 69 44.7728 68.8487 44.1 68.547V68.5479Z" fill="#171617"/>
<path d="M70.312 56.8372V68.7957H67.5627V63.8927H62.1656V68.7957H59.4164V56.8372H62.1656V61.5519H67.5627V56.8372H70.312V56.8372Z" fill="#171617"/>
<path d="M87.0622 66.2326H81.5467L80.4944 68.7948H77.6775L82.9721 56.8362H85.6875L91 68.7948H88.1145L87.0622 66.2326V66.2326ZM86.1968 64.1311L84.3129 59.5525L82.429 64.1311H86.1968V64.1311Z" fill="#171617"/>
</g>
<defs>
<clipPath id="clip0_2_75">
<rect width="91" height="69" fill="white"/>
</clipPath>
</defs>
</svg>
